name new_emg_signals
nRows=45
nColumns=7
 
endheader
time	RGLTMED	RRF	RADDLONG	RST	RTA	RGM
1.0000000000001563	0.4245461801537159	0.8522419680793506	0.7145946476786953	0.6228494438536982	0.7748031587854161	0.9618233728868648
1.0100000000001614	0.4233073004543537	0.847484223843384	0.71121874763944	0.622704803491054	0.7721272316994167	0.9621327411616104
1.0200000000001594	0.4220720618913961	0.8427369766726973	0.7078378115154457	0.6226273964439403	0.7693984025373434	0.9624468690847892
1.030000000000161	0.4208440866066376	0.8380088065180692	0.7044578083315558	0.6226184551079945	0.7666209192420815	0.9627698831577244
1.0400000000001626	0.4196268736084354	0.8333080745546172	0.7010845418761784	0.6226789124895061	0.763798830046513	0.9631056324232627
1.0500000000001641	0.418423792861659	0.8286429091709804	0.6977236454341703	0.6228094055664473	0.760935988726266	0.9634576811806308
1.0600000000001657	0.4172380797321623	0.8240211925255255	0.6943805768862324	0.6230102793709572	0.7580360602144174	0.9638293025291912
1.0700000000001673	0.4160728297983356	0.8194505477031309	0.691060614178729	0.6232815917847655	0.7551025265408633	0.9642234727672347
1.0800000000001688	0.4149309940411426	0.8149383265054065	0.6877688511672488	0.6236231190372414	0.7521386930571271	0.9646428666693484
1.0900000000001704	0.4138153744229909	0.8104915979057872	0.6845101938363797	0.6240343618939963	0.7491476949065111	0.9650898536631118
1.100000000000172	0.4127286198649116	0.8061171371986153	0.6812893568972553	0.6245145525215198	0.7461325036997573	0.96556649492329
1.1100000000001735	0.4116732226302186	0.8018214158687366	0.678110860763442	0.625062662011391	0.7430959343586712	0.966074541399099
1.1200000000001715	0.4106515151220802	0.7976105922051214	0.6749790289044894	0.6256774085452309	0.7400406520918736	0.966615432787183
1.1300000000001766	0.4096656671010987	0.7934905026792913	0.6718979855751056	0.6263572661797072	0.7369691794677098	0.9671902974595904
1.1400000000001782	0.4087176833281859	0.7894666541064342	0.6688716539158728	0.6271004742287876	0.7338839035490811	0.9677999533528664
1.1500000000001798	0.4078094016368129	0.7855442166047458	0.6659037544195998	0.6279050472186556	0.7307870830535339	0.9684449098207912
1.1600000000001813	0.4069424914377301	0.7817280173659887	0.6629978037558399	0.6287687853888941	0.7276808555017943	0.9691253704504492
1.1700000000001864	0.406118452658085	0.778022535247673	0.6601571139445591	0.6296892857120033	0.7245672443188415	0.9698412368378924
1.1800000000001845	0.4053386151159416	0.7744318961945835	0.6573847918686275	0.6306639534023114	0.7214481658548655	0.9705921133169289
1.190000000000186	0.4046041383303291	0.770959869494729	0.6546837391138692	0.6316900138841536	0.7183254362979793	0.9713773126314342
1.2000000000001876	0.4039160117665152	0.7676098648725436	0.6520566521243166	0.6327645251881683	0.7152007784561013	0.9721958625386624
1.2100000000001891	0.403275055515199	0.764384930420598	0.6495060226602916	0.6338843907435594	0.712075828390116	0.973046513327891
1.2200000000001907	0.4026819214037934	0.761287751369811	0.6470341385470898	0.6350463725328934	0.7089521418843311	0.9739277462356922
1.2300000000001923	0.4021370945368414	0.7583206496973371	0.6446430847032528	0.6362471045749793	0.7058312007422423	0.9748377827357052
1.2400000000001974	0.4016408952616235	0.7554855845699918	0.6423347444390869	0.6374831066999199	0.7027144188965594	0.9757745946778124
1.2500000000001954	0.4011934815539966	0.7527841536195569	0.6401108010188084	0.6387507985791379	0.6996031483225198	0.9767359152485664
1.2600000000002005	0.4007948518183251	0.7502175950442531	0.6379727394819064	0.6400465139715705	0.6964986847429545	0.9777192507219185
1.270000000000202	0.4004448480942627	0.7477867905282254	0.6359218487213705	0.6413665151455242	0.6934022731131455	0.9787218929666364
1.2800000000002	0.4001431596620428	0.745492268968571	0.6339592238182473	0.642707007433708	0.6903151128744053	0.9797409326739748
1.2900000000002017	0.3998893270367624	0.7433342109967338	0.632085768633214	0.6440641538772501	0.6872383629667868	0.9807732732661176
1.3000000000001997	0.3996827463410435	0.741312454278595	0.6303021986567057	0.6454340899125168	0.6841731465932113	0.9818156454430176
1.3100000000002048	0.3995226740442174	0.7394264995749629	0.6286090441192493	0.6468129380527936	0.6811205557289227	0.98286462232209
1.3200000000002063	0.3994082320551501	0.7376755175415151	0.6270066533631162	0.648196822515102	0.6780816553717405	0.9839166351225892
1.330000000000208	0.3993384131541061	0.7360583562448695	0.6254951964757934	0.6495818837403909	0.6750574875307082	0.984967989343552
1.3400000000002095	0.3993120867479849	0.7345735493699608	0.6240746691851685	0.6509642927540471	0.6720490749526817	0.9860148813814088
1.350000000000211	0.3993280049316589	0.7332193250932572	0.6227448970151096	0.6523402653123348	0.6690574245881331	0.9870534155305476
1.3600000000002126	0.399384808836843	0.7319936155969631	0.6215055396993726	0.6537060757803407	0.666083530798201	0.988079621306972
1.3700000000002142	0.3994810352487579	0.7308940671997451	0.620356095850457	0.6550580706869166	0.6631283783050136	0.9890894710317384
1.3800000000002122	0.3996151234696051	0.7299180510794934	0.6192959078791228	0.6563926819028861	0.6601929448876159	0.99007889760762
1.3900000000002173	0.3997854224066919	0.729062674562999	0.6183241671587355	0.6577064393887562	0.6572782038268701	0.9910438124187394
1.4000000000002153	0.3999901978618946	0.7283247929564927	0.6174399194272104	0.6589959834590575	0.6543851261035316	0.991980123279394
1.4100000000002204	0.4002276399981221	0.7277010218892336	0.6166420704175963	0.660258076511535	0.6515146823546107	0.9928837523551156
1.420000000000222	0.4004958709571981	0.7271877501406401	0.6159293917068088	0.6614896141724234	0.6486678445927316	0.993750653975668
1.4300000000002235	0.400792952602596	0.7267811529187719	0.6153005267701682	0.6626876358117175	0.6458455876932487	0.994576832257056
1.440000000000225	0.4011168943591731	0.7264772055559283	0.6147539972275528	0.6638493343850312	0.6430488906534738	0.9953583584485822
